<svg xmlns="http://www.w3.org/2000/svg" width="61" height="73" fill="none" viewBox="0 0 61 73"><path fill="#83B3D3" d="M57.92 21.33H34.41C47.5 14.8 48.54 10.63 48.07 8.35c-1.14-3.8-5.4-6.64-9.49-5.12-5.3 1.99-6.73 9.86-8.15 15.54C28.53 13 26.83 5.7 22.66 2 21.43.95 19.72-.19 17.16.1c-3.8.39-9.3 5.13-7.11 10.44 2.18 5.12 9.2 8.34 13.84 10.9H2.75A2.75 2.75 0 0 0 0 24.18v10.71a2.75 2.75 0 0 0 2.75 2.75h.28V72.05h54.8V37.54h.1a2.75 2.75 0 0 0 2.74-2.74V24.08a2.75 2.75 0 0 0-2.75-2.75ZM40.2 5.6c1.99-.29 4.74 1.23 5.02 3.03.38 2.65-3.22 5.02-4.83 6.07-2.37 1.6-4.65 2.46-6.92 3.88.85-3.5 2.37-12.32 6.73-12.98Zm-21.71 9.48c-2.09-1.43-6.17-4.17-6.07-7.4.1-3.41 5.4-6.26 8.34-3.7 3.7 3.23 5.4 10.53 6.73 15.74-3.03-1.42-5.97-2.65-9-4.64Zm5.68 54.13H5.78V37.54h18.4v31.67Zm0-34.6H2.84V24.18h21.33V34.6Zm9.67 0v34.6h-6.82V24.27h6.82v10.34ZM55 69.2h-18.4V37.54H55v31.67Zm2.75-34.6H36.59V24.18h21.15V34.6Z"/></svg>